<svg xmlns="http://www.w3.org/2000/svg" viewBox="0 0 16 20" shape-rendering="crispEdges" role="img" aria-label="Pixel World Cup trophy">
  <rect width="16" height="20" fill="#060a08"/>

  <!-- black silhouette -->
  <rect x="6" y="1" width="4" height="1" fill="#0a0a0a"/>
  <rect x="4" y="2" width="8" height="1" fill="#0a0a0a"/>
  <rect x="3" y="3" width="10" height="1" fill="#0a0a0a"/>
  <rect x="3" y="4" width="10" height="1" fill="#0a0a0a"/>
  <rect x="3" y="5" width="10" height="1" fill="#0a0a0a"/>
  <rect x="3" y="6" width="10" height="1" fill="#0a0a0a"/>
  <rect x="4" y="7" width="8" height="1" fill="#0a0a0a"/>
  <rect x="5" y="8" width="6" height="1" fill="#0a0a0a"/>
  <rect x="6" y="9" width="4" height="1" fill="#0a0a0a"/>
  <rect x="6" y="10" width="4" height="1" fill="#0a0a0a"/>
  <rect x="5" y="11" width="6" height="1" fill="#0a0a0a"/>
  <rect x="6" y="12" width="4" height="1" fill="#0a0a0a"/>
  <rect x="6" y="13" width="4" height="1" fill="#0a0a0a"/>
  <rect x="6" y="14" width="4" height="1" fill="#0a0a0a"/>
  <rect x="5" y="15" width="6" height="1" fill="#0a0a0a"/>
  <rect x="4" y="16" width="8" height="1" fill="#0a0a0a"/>
  <rect x="3" y="17" width="10" height="1" fill="#0a0a0a"/>
  <rect x="3" y="18" width="10" height="1" fill="#0a0a0a"/>
  <rect x="2" y="19" width="12" height="1" fill="#0a0a0a"/>

  <!-- gold fill (inset 1px from silhouette) -->
  <rect x="7" y="1" width="2" height="1" fill="#e0ab13"/>
  <rect x="5" y="2" width="6" height="1" fill="#e0ab13"/>
  <rect x="4" y="3" width="8" height="1" fill="#e0ab13"/>
  <rect x="4" y="4" width="8" height="1" fill="#e0ab13"/>
  <rect x="4" y="5" width="8" height="1" fill="#e0ab13"/>
  <rect x="4" y="6" width="8" height="1" fill="#e0ab13"/>
  <rect x="5" y="7" width="6" height="1" fill="#e0ab13"/>
  <rect x="6" y="8" width="4" height="1" fill="#e0ab13"/>
  <rect x="7" y="9" width="2" height="1" fill="#e0ab13"/>
  <rect x="7" y="10" width="2" height="1" fill="#e0ab13"/>
  <rect x="6" y="11" width="4" height="1" fill="#e0ab13"/>
  <rect x="7" y="12" width="2" height="1" fill="#e0ab13"/>
  <rect x="7" y="13" width="2" height="1" fill="#e0ab13"/>
  <rect x="7" y="14" width="2" height="1" fill="#e0ab13"/>
  <rect x="6" y="15" width="4" height="1" fill="#e0ab13"/>
  <rect x="5" y="16" width="6" height="1" fill="#e0ab13"/>
  <rect x="4" y="17" width="8" height="1" fill="#e0ab13"/>
  <rect x="4" y="18" width="8" height="1" fill="#e0ab13"/>

  <!-- globe shading blotches -->
  <rect x="6" y="2" width="1" height="1" fill="#a8790c"/>
  <rect x="9" y="2" width="1" height="1" fill="#ffe08a"/>
  <rect x="5" y="3" width="2" height="1" fill="#a8790c"/>
  <rect x="9" y="3" width="2" height="1" fill="#ffe08a"/>
  <rect x="7" y="4" width="2" height="1" fill="#a8790c"/>
  <rect x="5" y="5" width="2" height="1" fill="#ffe08a"/>
  <rect x="9" y="6" width="1" height="1" fill="#a8790c"/>

  <!-- twisting stem shading -->
  <rect x="7" y="9" width="1" height="1" fill="#a8790c"/>
  <rect x="8" y="10" width="1" height="1" fill="#a8790c"/>
  <rect x="7" y="12" width="1" height="1" fill="#a8790c"/>
  <rect x="8" y="13" width="1" height="1" fill="#a8790c"/>
  <rect x="7" y="14" width="1" height="1" fill="#a8790c"/>

  <!-- base foot rim -->
  <rect x="3" y="19" width="10" height="1" fill="#a8790c"/>
</svg>
